<svg width="240" height="240" viewBox="0 0 240 240" fill="none" xmlns="http://www.w3.org/2000/svg">
<path fill-rule="evenodd" clip-rule="evenodd" d="M51.9867 34.6191C23.9197 49.7825 -0.381486 130.575 14.8785 166.53C40.7901 227.58 180.597 228.761 205.759 160.919C263.839 4.32632 100.806 8.2443 51.9867 34.6191Z" fill="#F3F3F3"/>
<path fill-rule="evenodd" clip-rule="evenodd" d="M126.327 110.889C135.68 126.06 211.236 123.459 222.869 108.43C229.968 99.26 226.687 29.081 221.316 19.6738C214.042 6.93384 147.024 8.43775 131.559 13.9355C115.412 19.6762 116.974 95.7187 126.327 110.889Z" fill="white"/>
<path fill-rule="evenodd" clip-rule="evenodd" d="M164.304 81.6681C164.902 81.6681 165.351 81.2921 165.426 80.7657L170.811 36.17V36.0196C170.811 35.5684 170.587 35.2676 170.138 35.2676H169.989H161.163C160.564 35.3428 160.489 35.5684 160.415 36.0948L155.104 80.6905L155.029 80.8409C155.029 81.3673 155.478 81.6681 156.002 81.6681H164.304ZM172.083 94.2271C179.338 94.2271 185.397 91.971 186.593 82.2698L192.353 36.1701C192.353 35.7188 192.128 35.418 191.605 35.418H191.455L183.003 35.2676C182.48 35.3428 182.031 35.6436 181.956 36.1701L176.346 82.4954C175.748 87.0828 173.504 87.3836 170.288 87.534C169.681 87.5679 169.12 87.5865 168.605 87.6036C167.976 87.6245 167.415 87.6431 166.922 87.6844C165.949 87.6844 165.575 87.91 165.426 88.9629L164.977 92.5727V92.9487C164.977 93.7654 165.56 93.8491 166.079 93.9235L166.099 93.9263C166.211 93.9413 166.317 93.9563 166.423 93.9711C167.376 94.1052 168.244 94.2271 172.083 94.2271Z" fill="#167DB7"/>
<path fill-rule="evenodd" clip-rule="evenodd" d="M75.5714 97.1777C77.6989 94.7788 84.3221 89.4195 85.5804 75.7746C88.1043 48.4521 83.8329 35.2166 69.6842 32.4906C48.4618 28.4039 40.896 46.9226 38.3107 60.3075C35.7239 73.6909 45.0537 89.5733 43.7476 99.6363C42.6809 107.855 41.1937 114.058 32.5821 125.026C23.3496 136.783 42.1363 141.229 54.4089 136.729C66.6845 132.229 75.8407 132.217 74.5106 126.297C72.7198 118.324 72.4026 100.754 75.5714 97.1777Z" fill="#88BCDA"/>
<path fill-rule="evenodd" clip-rule="evenodd" d="M60.9698 26.0904C75.313 22.2233 89.4378 37.6994 85.6032 47.1813C82.0186 56.0463 72.7501 53.4115 73.3441 79.9901C73.7047 96.0503 67.7995 109.066 51.3198 104.643C39.2672 101.408 37.5391 100.911 29.4751 78.7713C22.6259 59.9613 24.2671 51.1485 30.7049 41.4844C38.8258 29.2884 48.9934 29.3183 60.9698 26.0904Z" fill="#0B5077"/>
<path fill-rule="evenodd" clip-rule="evenodd" d="M77.2376 86.8997C70.6472 88.4576 68.8833 83.7062 68.4165 81.0803C67.272 74.6484 70.713 71.452 76.301 72.617C79.7974 73.3474 80.5186 86.1229 77.2376 86.8997Z" fill="#86BAD8"/>
<path fill-rule="evenodd" clip-rule="evenodd" d="M143.878 108.157C142.256 100.304 145.971 94.9333 145.679 90.5697C145.387 86.2061 141.607 81.8081 137.138 86.1355C134.367 88.8182 131.904 94.998 131.912 101.372C131.201 99.8982 131.439 93.5513 129.917 94.1307C128.394 94.7102 127.035 98.532 131.459 110.085C133.195 114.617 134.814 121.482 135.486 131.523C136.006 139.303 134.731 150.231 130.093 151.363C125.455 152.495 104.128 137.104 94.2042 132.573C73.6042 123.166 68.6808 144.574 86.128 154.835C104.754 165.786 115.47 168.758 126.441 170.433C137.412 172.109 144.72 168.572 147.505 162.384C150.901 154.835 150.194 140.935 148.361 130.661C146.767 121.722 145.913 118.016 143.878 108.157Z" fill="#88BCDA"/>
<path fill-rule="evenodd" clip-rule="evenodd" d="M78.0422 128.437C78.519 122.976 106.61 137.866 122.8 146.943C127.025 149.311 121.797 164.846 117.302 171.833C114.876 175.602 101.034 165.061 101.638 173.87C96.947 180.133 77.179 138.277 78.0422 128.437Z" fill="white"/>
<path fill-rule="evenodd" clip-rule="evenodd" d="M76.8516 126.343C103.186 130.143 97.2651 166.574 106.527 197.067C112.516 216.788 106.636 227.759 67.307 230.182C41.0344 231.801 23.0563 228.812 16.8524 220.352C13.2524 215.442 16.0159 188.916 16.8524 171.915C18.6669 135.094 33.2765 117.963 36.9693 118.703C37.7218 118.852 32.4913 123.04 42.0117 125.675C58.1932 130.152 71.9149 125.629 76.8516 126.343Z" fill="white"/>
<path fill-rule="evenodd" clip-rule="evenodd" d="M207.401 20.4966C209.758 16.9414 212.588 16.3281 214.611 18.6477C216.44 20.7452 213.994 23.1703 212.971 24.4578C210.145 28.0119 208.57 31.5105 205.819 28.1085C203.067 24.707 205.344 23.1498 207.401 20.4966Z" fill="#F2D249"/>
<path fill-rule="evenodd" clip-rule="evenodd" d="M218.781 33.4934C223.002 32.7563 225.404 34.3785 225.112 37.4288C224.846 40.1866 221.388 40.085 219.742 40.2291C215.198 40.6276 211.559 41.8901 212.138 37.5718C212.716 33.2538 215.426 33.8291 218.781 33.4934Z" fill="#F2D249"/>
</svg>
