<svg width="600" height="330" viewBox="0 0 600 330" fill="none" xmlns="http://www.w3.org/2000/svg">
<g clip-path="url(#clip0_914_5470)">
<rect width="600" height="330" fill="#C4DEEC"/>
<g opacity="0.3">
<path fill-rule="evenodd" clip-rule="evenodd" d="M20.0419 409.474C-18.5741 360.145 -14.1861 151.697 32.8195 122.66C65.2245 102.641 201.03 22.865 269.913 22.7443C305.444 22.682 363.869 44.3143 417.132 72.8091C417.513 58.2664 418.828 46.7907 421.574 44.6121C427.692 35.6494 467.441 37.6762 470.458 48.1711C472.724 56.0526 474.214 84.0974 474.972 108.079C499.475 125.248 519.247 142.75 529.782 158.203C549.598 187.27 547.271 348.018 543.919 400.069C531.142 430.631 116.583 437.686 20.0419 409.474Z" fill="white"/>
</g>
<path fill-rule="evenodd" clip-rule="evenodd" d="M310.735 286.708C294.06 265.095 288.792 240.699 284.727 208.567C282.619 191.906 314.378 189.867 317.486 210.398C320.517 230.417 316.668 253.037 332.632 271.071C349.622 290.267 369.278 303.029 381.929 306.5C389.846 308.673 401.438 306.822 402.277 309.927C402.703 311.496 399.904 310.359 400.055 311.848C400.141 312.704 402.449 312.607 404.073 313.104C406.33 313.797 409.072 316.457 409.081 317.523C409.118 321.87 404.084 327.17 398.195 325.305C395.585 324.478 374.098 317.459 371.193 316.414C361.983 313.101 324.027 303.938 310.735 286.708Z" fill="#87BBD9"/>
<path fill-rule="evenodd" clip-rule="evenodd" d="M283.145 186.078C297.826 180.939 322.91 198.471 320.275 220.29C319.335 228.068 305.616 231.789 294.845 232.756C285.31 233.612 288.17 231.084 282.374 210.798C279.632 201.197 264.823 192.492 283.145 186.078Z" fill="white"/>
<path fill-rule="evenodd" clip-rule="evenodd" d="M294.675 160.55C301.766 157.891 307.495 152.298 311.541 135.417C319.642 101.618 314.635 92.0521 296.588 86.2698C269.516 77.5978 258.098 91.8004 252.362 108.132C246.625 124.463 252.275 144.507 248.797 156.892C245.958 167.007 241.963 174.987 227.924 184.388C211.74 195.228 257.326 238.6 284.291 209.214C295.675 196.808 290.579 195.174 286.81 188.405C283.042 181.636 280.628 165.819 294.675 160.55Z" fill="#87BBD9"/>
<path fill-rule="evenodd" clip-rule="evenodd" d="M312.69 106.517C302.205 108.998 265.049 89.1194 263.016 108.978C260.638 132.199 253.551 115.122 250.953 139.468C249.411 153.914 222.645 86.237 256.937 75.5582C293.025 64.3188 301.669 78.626 311.6 76.7383C325.612 74.0735 323.926 103.86 312.69 106.517Z" fill="#0C5077"/>
<path fill-rule="evenodd" clip-rule="evenodd" d="M282.485 125.454C282.425 124.279 282.95 123.633 284.322 123.14C285.524 122.708 286.599 123.454 286.836 124.074C287.375 125.474 286.113 127.913 284.279 127.599C283.036 127.386 282.534 126.434 282.485 125.454Z" fill="#083752"/>
<path fill-rule="evenodd" clip-rule="evenodd" d="M301.811 127.028C301.923 125.901 302.455 125.37 303.679 125.119C304.753 124.898 305.557 125.779 305.673 126.405C305.934 127.823 304.533 129.943 303.03 129.353C302.011 128.954 301.718 127.968 301.811 127.028Z" fill="#083752"/>
<path fill-rule="evenodd" clip-rule="evenodd" d="M290.74 147.473C295.151 148.296 298.469 144.194 297.337 143.276C294.126 140.667 286.955 141.986 286.9 142.048C286.209 142.841 288.477 147.051 290.74 147.473Z" fill="white"/>
<path fill-rule="evenodd" clip-rule="evenodd" d="M280.334 119.548C284.818 118.028 289.121 119.259 291.528 121.207C292.197 121.75 292.443 122.649 292.019 123.286C291.592 123.926 290.742 123.568 290.035 123.073C288.143 121.744 285.721 120.485 280.342 122.305C279.598 122.557 278.515 122.669 278.233 121.872C277.983 121.169 278.783 120.074 280.334 119.548Z" fill="#0C5077"/>
<path fill-rule="evenodd" clip-rule="evenodd" d="M301.668 119.517C304.376 118.348 307.504 118.917 310.207 119.958C311.484 120.45 311.666 121.55 311.323 122.099C310.936 122.72 310.27 122.513 309.665 122.26C306.684 121.017 304.565 120.306 302.538 121.288C299.511 122.755 298.583 124.156 299.524 129.491C300.558 135.346 296.034 135.9 295.505 135.297C294.813 134.508 296.749 133.709 297.336 133.181C298.941 131.734 296.583 127.441 297.271 124.344C297.995 121.083 299.486 120.459 301.668 119.517Z" fill="#0C5077"/>
<path fill-rule="evenodd" clip-rule="evenodd" d="M257.809 136.764C250.283 135.673 250.01 131.08 250.397 128.727C251.348 122.959 256.078 121.545 261.62 124.539C265.089 126.412 261.555 137.307 257.809 136.764Z" fill="#87BBD9"/>
<path fill-rule="evenodd" clip-rule="evenodd" d="M199.84 260.223C199.84 285.669 206.368 323.107 202.112 343.81C198.941 359.226 206.542 358.763 248.254 361.709C289.287 364.607 318.62 368.227 316.733 360.931C308.638 329.642 306.361 283.021 308.799 235.951C310.743 198.423 297.672 182.744 287.046 185.973C283.359 187.094 297.752 197.282 273.41 197.778C251.744 198.219 233.803 180.247 230.972 180.828C195.249 188.162 199.84 233.591 199.84 260.223Z" fill="white"/>
<path fill-rule="evenodd" clip-rule="evenodd" d="M247.041 312.234C225.851 290.42 215.134 264.429 203.818 229.911C197.949 212.011 228.419 206.594 236.147 228.6C243.682 250.056 245.112 275.032 264.79 293.029C285.735 312.183 307.806 324.076 320.922 326.576C329.132 328.138 339.998 324.96 341.528 328.251C342.3 329.913 339.314 328.96 339.803 330.563C340.083 331.484 342.309 331.145 344.004 331.522C346.361 332.048 349.641 334.664 349.894 335.82C350.925 340.544 347.234 346.813 341.072 345.378C338.34 344.742 316.57 342.67 313.5 341.827C303.77 339.152 263.933 329.624 247.041 312.234Z" fill="#87BBD9"/>
<path fill-rule="evenodd" clip-rule="evenodd" d="M218.148 186.14C201.892 195.893 195.457 225.563 205.955 245.139C209.696 252.117 228.07 249.239 238.557 246.351C247.841 243.795 244.221 242.427 242.218 221.318C241.27 211.331 229.527 179.312 218.148 186.14Z" fill="white"/>
<path fill-rule="evenodd" clip-rule="evenodd" d="M231.376 257.322C220.123 234.908 234.114 178.47 267.219 170.818C276.051 163.439 257.682 156.66 259.964 148.408C261.153 144.085 268.223 122.425 268.069 116.669C280.682 97.2746 306.65 110.931 311.867 112.114C311.867 112.114 404.671 209.509 470.723 255.02C483.327 261.629 429.138 317.379 397.304 332.052C359.369 349.536 298.766 325.235 274.203 309.429C247.632 292.331 241.806 278.103 231.376 257.322Z" fill="white" fill-opacity="0.2"/>
<path fill-rule="evenodd" clip-rule="evenodd" d="M476.561 253.566C479.356 253.416 483.901 254.918 482.999 264.363C482.999 264.363 471.518 318.471 469.115 332.767C469.115 351.813 388.236 348.025 325.404 344.882C326.724 321.414 339.342 266.141 339.342 266.141C339.804 263.824 340.977 256.788 349.67 256.611L476.561 253.566Z" fill="#FD6340"/>
<path fill-rule="evenodd" clip-rule="evenodd" d="M396.254 304.177C396.697 310.729 401.488 315.767 411.095 315.17C420.699 314.574 424.769 308.988 424.326 302.434C423.881 295.882 418.535 294.576 409.485 291.442C400.817 288.439 395.809 297.624 396.254 304.177Z" fill="#FDEDEB"/>
<path d="M176.686 285.768C176.382 279.474 181.244 281.976 185.005 287.587C189.678 294.714 190.324 295.169 200.77 293.918C207.912 293.16 206.658 284.44 209.773 284.175C212.888 283.909 230.363 317.612 215.396 333.041C200.428 348.471 202.859 343.997 202.973 363.9C203.087 383.802 195.11 391.537 213.914 386.267C230.971 381.49 220.676 412.538 177.446 404.653C157.882 401.127 129.885 381.642 112.676 374.628C91.7829 366.137 71.4593 366.819 64.8494 357.039C52.8072 339.183 60.5187 324.891 78.7909 311.281C97.0631 297.671 151.538 326.445 163.846 322.92C176.154 319.394 177.066 293.729 176.686 285.768Z" fill="#87BBD9"/>
<path d="M82.3621 314.276C82.3621 314.276 72.0294 290.051 81.6783 265.713C91.7451 240.237 86.1608 209.796 78.2973 202.517C70.4338 195.238 78.2974 219.538 77.9175 236.257C77.5377 252.975 67.1291 273.371 68.0788 290.165C68.5559 300.136 70.9278 309.927 75.0684 319.015L82.3621 314.276Z" fill="#87BBD9"/>
</g>
<defs>
<clipPath id="clip0_914_5470">
<rect width="600" height="330" fill="white"/>
</clipPath>
</defs>
</svg>
